# xmcd
#
# Track frame offsets:
# 150
# 16213
# 33274
# 53392
# 69026
# 88157
# 106808
# 124115
# 139745
# 153970
# 172858
# 190657
# 211195
# 229703
# 249721
# 265294
# 282033
# 297643
# 317109
# 337980
#
# Disc length: 4727 seconds
#
#
# Revision: 0
# Processed by: cddbd v1.5.2PL0 Copyright (c) Steve Scherf et al.
# Submitted via: FreeRIP 2.95 
#
DISCID=0c127514
DTITLE=Zezé e Luciano - As 20 mais
DYEAR=1900
DGENRE=Sertanejo
TTITLE0=Apaixonado por você
TTITLE1=Fera mansa
TTITLE2=Fui eu
TTITLE3=Meu destino te escolheu
TTITLE4=Átomos
TTITLE5=Agora aguenta nóis
TTITLE6=Pra mudar minha vida
TTITLE7=Nosso amor é ouro
TTITLE8=Meu coração mandou
TTITLE9=Irmão da lua
TTITLE10=Galera felicidade
TTITLE11=Preciso de um tempo
TTITLE12=Um dia mais
TTITLE13=Sufocado
TTITLE14=Imprevisivel
TTITLE15=A ferro e fogo
TTITLE16=Pra sempre em mim
TTITLE17=O amor deixou a gente
TTITLE18=Passou da conta
TTITLE19=É disso que eu preciso
EXTD=
EXTT0=
EXTT1=
EXTT2=
EXTT3=
EXTT4=
EXTT5=
EXTT6=
EXTT7=
EXTT8=
EXTT9=
EXTT10=
EXTT11=
EXTT12=
EXTT13=
EXTT14=
EXTT15=
EXTT16=
EXTT17=
EXTT18=
EXTT19=
PLAYORDER=
